<svg width="19" height="21" viewBox="0 0 19 21" fill="none" xmlns="http://www.w3.org/2000/svg">
<g clip-path="url(#clip0_137_46)">
<path d="M17.9429 4.15263H17.2936C16.4934 4.15263 15.8912 3.4278 15.6388 2.6685C15.48 2.19089 15.2179 1.75417 14.871 1.38944C14.6331 1.15137 14.3506 0.962527 14.0397 0.833682C13.7287 0.704838 13.3954 0.638521 13.0588 0.638521C12.7222 0.638521 12.3889 0.704838 12.078 0.833682C11.767 0.962527 11.4846 1.15137 11.2466 1.38944C10.1179 2.58432 8.20163 2.56632 7.07667 1.3679C6.59764 0.898001 5.9534 0.634766 5.28238 0.634766C4.61136 0.634766 3.96711 0.898001 3.48809 1.3679C3.12803 1.72991 2.85351 2.16787 2.68461 2.64971C2.41524 3.4182 1.80094 4.15263 0.986616 4.15263H0.717714C0.527364 4.15263 0.344811 4.22825 0.210213 4.36285C0.0756161 4.49744 0 4.68 0 4.87035V7.74121C0 7.93155 0.0756161 8.11411 0.210213 8.24871C0.344811 8.38331 0.527364 8.45892 0.717714 8.45892C1.1141 8.45892 1.43543 8.78025 1.43543 9.17663V19.2247C1.43543 19.415 1.51104 19.5975 1.64564 19.7321C1.78024 19.8668 1.96279 19.9423 2.15314 19.9423H16.5074C16.6978 19.9423 16.8803 19.8668 17.0149 19.7321C17.1496 19.5975 17.2251 19.415 17.2251 19.2247V9.17663C17.2251 8.78025 17.5464 8.45892 17.9429 8.45892C18.1332 8.45892 18.3158 8.38331 18.4503 8.24871C18.585 8.11411 18.6606 7.93155 18.6606 7.74121V4.87035C18.6606 4.68 18.585 4.49744 18.4503 4.36285C18.3158 4.22825 18.1332 4.15263 17.9429 4.15263ZM12.237 2.40859C12.341 2.30421 12.4647 2.22139 12.6008 2.16488C12.7369 2.10837 12.8828 2.07928 13.0301 2.07928C13.1774 2.07928 13.3233 2.10837 13.4594 2.16488C13.5956 2.22139 13.7191 2.30421 13.8232 2.40859C14.0369 2.6396 14.1916 2.91883 14.274 3.2225C14.4178 3.7519 13.906 4.15263 13.3574 4.15263H12.9899C12.083 4.15263 11.615 3.06863 12.237 2.40859ZM4.44266 2.40859C4.65213 2.20214 4.93443 2.08642 5.22854 2.08642C5.52267 2.08642 5.80497 2.20214 6.01444 2.40859C6.63963 3.06625 6.17344 4.15263 5.26604 4.15263H4.90841C4.35982 4.15263 3.84804 3.7519 3.99183 3.2225C4.07431 2.91883 4.22898 2.6396 4.44266 2.40859ZM1.43543 6.30578C1.43543 5.9094 1.75676 5.58807 2.15314 5.58807H7.89486C8.29124 5.58807 8.61258 5.9094 8.61258 6.30578C8.61258 6.70217 8.29124 7.0235 7.89486 7.0235H2.15314C1.75676 7.0235 1.43543 6.70217 1.43543 6.30578ZM2.87086 11.3298C2.87086 9.74424 4.15619 8.45892 5.74171 8.45892C7.32724 8.45892 8.61258 9.74426 8.61258 11.3298V15.6361C8.61258 17.2215 7.32724 18.5069 5.74171 18.5069C4.15619 18.5069 2.87086 17.2215 2.87086 15.6361V11.3298ZM15.7897 15.6361C15.7897 17.2215 14.5044 18.5069 12.9189 18.5069C11.3333 18.5069 10.048 17.2215 10.048 15.6361V11.3298C10.048 9.74424 11.3333 8.45892 12.9189 8.45892C14.5044 8.45892 15.7897 9.74426 15.7897 11.3298V15.6361ZM17.2251 6.30578C17.2251 6.70217 16.9038 7.0235 16.5074 7.0235H10.7657C10.3693 7.0235 10.048 6.70217 10.048 6.30578C10.048 5.9094 10.3693 5.58807 10.7657 5.58807H16.5074C16.9038 5.58807 17.2251 5.9094 17.2251 6.30578Z" fill="url(#paint0_linear_137_46)"/>
<path d="M17.9429 4.15263H17.2936C16.4934 4.15263 15.8912 3.4278 15.6388 2.6685C15.48 2.19089 15.2179 1.75417 14.871 1.38944C14.6331 1.15137 14.3506 0.962527 14.0397 0.833682C13.7287 0.704838 13.3954 0.638521 13.0588 0.638521C12.7222 0.638521 12.3889 0.704838 12.078 0.833682C11.767 0.962527 11.4846 1.15137 11.2466 1.38944C10.1179 2.58432 8.20163 2.56632 7.07667 1.3679C6.59764 0.898001 5.9534 0.634766 5.28238 0.634766C4.61136 0.634766 3.96711 0.898001 3.48809 1.3679C3.12803 1.72991 2.85351 2.16787 2.68461 2.64971C2.41524 3.4182 1.80094 4.15263 0.986616 4.15263H0.717714C0.527364 4.15263 0.344811 4.22825 0.210213 4.36285C0.0756161 4.49744 0 4.68 0 4.87035V7.74121C0 7.93155 0.0756161 8.11411 0.210213 8.24871C0.344811 8.38331 0.527364 8.45892 0.717714 8.45892C1.1141 8.45892 1.43543 8.78025 1.43543 9.17663V19.2247C1.43543 19.415 1.51104 19.5975 1.64564 19.7321C1.78024 19.8668 1.96279 19.9423 2.15314 19.9423H16.5074C16.6978 19.9423 16.8803 19.8668 17.0149 19.7321C17.1496 19.5975 17.2251 19.415 17.2251 19.2247V9.17663C17.2251 8.78025 17.5464 8.45892 17.9429 8.45892C18.1332 8.45892 18.3158 8.38331 18.4503 8.24871C18.585 8.11411 18.6606 7.93155 18.6606 7.74121V4.87035C18.6606 4.68 18.585 4.49744 18.4503 4.36285C18.3158 4.22825 18.1332 4.15263 17.9429 4.15263ZM12.237 2.40859C12.341 2.30421 12.4647 2.22139 12.6008 2.16488C12.7369 2.10837 12.8828 2.07928 13.0301 2.07928C13.1774 2.07928 13.3233 2.10837 13.4594 2.16488C13.5956 2.22139 13.7191 2.30421 13.8232 2.40859C14.0369 2.6396 14.1916 2.91883 14.274 3.2225C14.4178 3.7519 13.906 4.15263 13.3574 4.15263H12.9899C12.083 4.15263 11.615 3.06863 12.237 2.40859ZM4.44266 2.40859C4.65213 2.20214 4.93443 2.08642 5.22854 2.08642C5.52267 2.08642 5.80497 2.20214 6.01444 2.40859C6.63963 3.06625 6.17344 4.15263 5.26604 4.15263H4.90841C4.35982 4.15263 3.84804 3.7519 3.99183 3.2225C4.07431 2.91883 4.22898 2.6396 4.44266 2.40859ZM1.43543 6.30578C1.43543 5.9094 1.75676 5.58807 2.15314 5.58807H7.89486C8.29124 5.58807 8.61258 5.9094 8.61258 6.30578C8.61258 6.70217 8.29124 7.0235 7.89486 7.0235H2.15314C1.75676 7.0235 1.43543 6.70217 1.43543 6.30578ZM2.87086 11.3298C2.87086 9.74424 4.15619 8.45892 5.74171 8.45892C7.32724 8.45892 8.61258 9.74426 8.61258 11.3298V15.6361C8.61258 17.2215 7.32724 18.5069 5.74171 18.5069C4.15619 18.5069 2.87086 17.2215 2.87086 15.6361V11.3298ZM15.7897 15.6361C15.7897 17.2215 14.5044 18.5069 12.9189 18.5069C11.3333 18.5069 10.048 17.2215 10.048 15.6361V11.3298C10.048 9.74424 11.3333 8.45892 12.9189 8.45892C14.5044 8.45892 15.7897 9.74426 15.7897 11.3298V15.6361ZM17.2251 6.30578C17.2251 6.70217 16.9038 7.0235 16.5074 7.0235H10.7657C10.3693 7.0235 10.048 6.70217 10.048 6.30578C10.048 5.9094 10.3693 5.58807 10.7657 5.58807H16.5074C16.9038 5.58807 17.2251 5.9094 17.2251 6.30578Z" fill="url(#paint1_linear_137_46)"/>
</g>
<defs>
<linearGradient id="paint0_linear_137_46" x1="0.609233" y1="10.2886" x2="18.2996" y2="10.2886" gradientUnits="userSpaceOnUse">
<stop stop-color="#E43932"/>
<stop offset="1" stop-color="#7827F6"/>
</linearGradient>
<linearGradient id="paint1_linear_137_46" x1="-0.481548" y1="10.1432" x2="18.6974" y2="10.1432" gradientUnits="userSpaceOnUse">
<stop stop-color="#22FF00"/>
<stop offset="0.925" stop-color="#FADE08"/>
</linearGradient>
<clipPath id="clip0_137_46">
<rect width="18.8889" height="20" fill="white" transform="translate(0 0.634766)"/>
</clipPath>
</defs>
</svg>
