<svg width="33" height="33" viewBox="0 0 33 33" fill="none" xmlns="http://www.w3.org/2000/svg">
<g clip-path="url(#clip0_137_250)">
<path d="M28.2434 24.1154L22.2312 21.0123C21.3585 20.5275 20.3888 20.8184 19.807 21.4972L17.5767 24.3093C15.4434 23.1457 13.7949 22.079 11.9525 20.1396C9.91609 18.1032 8.84943 16.4548 7.78276 14.4184L10.5949 12.1881C11.3706 11.6063 11.5646 10.5396 11.1767 9.76385L7.9767 3.8487C7.49185 2.87901 6.13428 2.49113 5.16458 3.16992L1.38276 5.69113C0.510032 6.27295 -0.0717858 7.33961 0.0251839 8.30931C0.122154 9.37598 0.219123 10.7336 0.510032 11.7032C1.5767 15.9699 4.29185 20.3336 8.07367 24.1154C11.7585 27.8002 16.2191 30.5154 20.4858 31.679C21.4555 31.8729 22.8131 32.0669 23.8797 32.1639C24.9464 32.2608 26.0131 31.679 26.5949 30.8063L29.1161 26.9275C29.6009 25.9578 29.2131 24.6002 28.2434 24.1154ZM16.1222 12.6729C16.8979 12.8669 17.5767 13.2548 18.1585 13.8366C18.7403 14.4184 19.1282 15.1942 19.3222 15.8729C19.5161 16.4548 20.0979 16.8426 20.6797 16.8426H20.7767C21.6494 16.8426 22.3282 15.9699 22.0373 15.0972C21.7464 13.9336 21.0676 12.6729 20.0979 11.8002C19.1282 10.8305 17.9646 10.1517 16.8009 9.86082C15.9282 9.66689 15.1525 10.2487 15.0555 11.1214V11.2184C15.0555 11.9942 15.5403 12.576 16.1222 12.6729ZM16.51 7.92143C18.3525 8.21234 20.0979 9.08507 21.5525 10.5396C23.007 11.9942 23.8797 13.7396 24.1706 15.582C24.2676 16.2608 24.9464 16.7457 25.6252 16.7457H25.7222C26.5949 16.7457 27.1767 15.9699 26.9828 15.0972C26.4979 12.6729 25.4312 10.3457 23.5888 8.50325C21.6494 6.56386 19.4191 5.40022 16.9949 5.01234C16.2191 4.91537 15.4434 5.49719 15.3464 6.27295V6.36992C15.3464 7.14567 15.8312 7.72749 16.51 7.92143ZM31.9282 14.9032C31.4434 11.3154 29.7949 7.82446 27.0797 5.10931C24.2676 2.29719 20.7767 0.648704 17.1888 0.163856C16.4131 0.0668861 15.6373 0.648704 15.6373 1.52143V1.6184C15.6373 2.39416 16.1222 2.97598 16.8009 3.07295C19.807 3.46083 22.6191 4.8184 24.9464 7.14567C27.2737 9.47295 28.5343 12.2851 29.0191 15.2911C29.1161 15.9699 29.6979 16.5517 30.4737 16.4548H30.5706C31.4434 16.4548 32.0252 15.679 31.9282 14.9032Z" fill="url(#paint0_linear_137_250)"/>
<path d="M28.2434 24.1154L22.2312 21.0123C21.3585 20.5275 20.3888 20.8184 19.807 21.4972L17.5767 24.3093C15.4434 23.1457 13.7949 22.079 11.9525 20.1396C9.91609 18.1032 8.84943 16.4548 7.78276 14.4184L10.5949 12.1881C11.3706 11.6063 11.5646 10.5396 11.1767 9.76385L7.9767 3.8487C7.49185 2.87901 6.13428 2.49113 5.16458 3.16992L1.38276 5.69113C0.510032 6.27295 -0.0717858 7.33961 0.0251839 8.30931C0.122154 9.37598 0.219123 10.7336 0.510032 11.7032C1.5767 15.9699 4.29185 20.3336 8.07367 24.1154C11.7585 27.8002 16.2191 30.5154 20.4858 31.679C21.4555 31.8729 22.8131 32.0669 23.8797 32.1639C24.9464 32.2608 26.0131 31.679 26.5949 30.8063L29.1161 26.9275C29.6009 25.9578 29.2131 24.6002 28.2434 24.1154ZM16.1222 12.6729C16.8979 12.8669 17.5767 13.2548 18.1585 13.8366C18.7403 14.4184 19.1282 15.1942 19.3222 15.8729C19.5161 16.4548 20.0979 16.8426 20.6797 16.8426H20.7767C21.6494 16.8426 22.3282 15.9699 22.0373 15.0972C21.7464 13.9336 21.0676 12.6729 20.0979 11.8002C19.1282 10.8305 17.9646 10.1517 16.8009 9.86082C15.9282 9.66689 15.1525 10.2487 15.0555 11.1214V11.2184C15.0555 11.9942 15.5403 12.576 16.1222 12.6729ZM16.51 7.92143C18.3525 8.21234 20.0979 9.08507 21.5525 10.5396C23.007 11.9942 23.8797 13.7396 24.1706 15.582C24.2676 16.2608 24.9464 16.7457 25.6252 16.7457H25.7222C26.5949 16.7457 27.1767 15.9699 26.9828 15.0972C26.4979 12.6729 25.4312 10.3457 23.5888 8.50325C21.6494 6.56386 19.4191 5.40022 16.9949 5.01234C16.2191 4.91537 15.4434 5.49719 15.3464 6.27295V6.36992C15.3464 7.14567 15.8312 7.72749 16.51 7.92143ZM31.9282 14.9032C31.4434 11.3154 29.7949 7.82446 27.0797 5.10931C24.2676 2.29719 20.7767 0.648704 17.1888 0.163856C16.4131 0.0668861 15.6373 0.648704 15.6373 1.52143V1.6184C15.6373 2.39416 16.1222 2.97598 16.8009 3.07295C19.807 3.46083 22.6191 4.8184 24.9464 7.14567C27.2737 9.47295 28.5343 12.2851 29.0191 15.2911C29.1161 15.9699 29.6979 16.5517 30.4737 16.4548H30.5706C31.4434 16.4548 32.0252 15.679 31.9282 14.9032Z" fill="url(#paint1_linear_137_250)"/>
</g>
<defs>
<linearGradient id="paint0_linear_137_250" x1="1.51764" y1="16.1639" x2="31.3572" y2="16.1639" gradientUnits="userSpaceOnUse">
<stop stop-color="#010101"/>
<stop offset="1" stop-color="#F1D607"/>
</linearGradient>
<linearGradient id="paint1_linear_137_250" x1="-0.809174" y1="15.9228" x2="32.0017" y2="15.9228" gradientUnits="userSpaceOnUse">
<stop stop-color="#22FF00"/>
<stop offset="0.925" stop-color="#FADE08"/>
</linearGradient>
<clipPath id="clip0_137_250">
<rect width="32" height="32" fill="white" transform="translate(0.0253906 0.164062)"/>
</clipPath>
</defs>
</svg>
