<svg width="40" height="40" viewBox="0 0 40 40" fill="none" xmlns="http://www.w3.org/2000/svg">
<path d="M20 0.549805C9 0.549805 0 9.2998 0 20.0498C0 30.7998 9 39.5498 20 39.5498C31 39.5498 40 30.7998 40 20.0498C40 9.2998 31 0.549805 20 0.549805ZM29.25 13.7998C29 16.7998 27.75 24.2998 27 27.7998C26.75 29.2998 26.25 29.7998 25.75 29.7998C24.5 29.7998 23.75 29.0498 22.5 28.2998C20.75 27.2998 19.75 26.5498 18 25.2998C16 24.0498 17.25 23.5498 18.5 22.2998C18.75 22.0498 23.75 17.5498 24 17.0498V16.7998C24 16.7998 23.75 16.7998 23.5 16.7998C23.25 16.7998 20.5 18.5498 15 22.0498C14.25 22.5498 13.5 22.7998 12.75 22.7998C12 22.7998 10.75 22.5498 9.75 22.2998C8.5 21.7998 7.5 21.5498 7.5 20.7998C7.5 20.5498 8 20.0498 9 19.7998C15 17.2998 18.75 15.7998 20.75 15.0498C26.25 12.7998 27.5 12.2998 28.25 12.2998C28.5 12.2998 28.75 12.2998 29 12.5498C29.25 12.7998 29.25 12.7998 29.25 13.0498C29.25 13.2998 29.25 13.5498 29.25 13.7998Z" fill="url(#paint0_linear_137_50)"/>
<path d="M20 0.549805C9 0.549805 0 9.2998 0 20.0498C0 30.7998 9 39.5498 20 39.5498C31 39.5498 40 30.7998 40 20.0498C40 9.2998 31 0.549805 20 0.549805ZM29.25 13.7998C29 16.7998 27.75 24.2998 27 27.7998C26.75 29.2998 26.25 29.7998 25.75 29.7998C24.5 29.7998 23.75 29.0498 22.5 28.2998C20.75 27.2998 19.75 26.5498 18 25.2998C16 24.0498 17.25 23.5498 18.5 22.2998C18.75 22.0498 23.75 17.5498 24 17.0498V16.7998C24 16.7998 23.75 16.7998 23.5 16.7998C23.25 16.7998 20.5 18.5498 15 22.0498C14.25 22.5498 13.5 22.7998 12.75 22.7998C12 22.7998 10.75 22.5498 9.75 22.2998C8.5 21.7998 7.5 21.5498 7.5 20.7998C7.5 20.5498 8 20.0498 9 19.7998C15 17.2998 18.75 15.7998 20.75 15.0498C26.25 12.7998 27.5 12.2998 28.25 12.2998C28.5 12.2998 28.75 12.2998 29 12.5498C29.25 12.7998 29.25 12.7998 29.25 13.0498C29.25 13.2998 29.25 13.5498 29.25 13.7998Z" fill="url(#paint1_linear_137_50)"/>
<defs>
<linearGradient id="paint0_linear_137_50" x1="0" y1="20.0498" x2="40" y2="20.0498" gradientUnits="userSpaceOnUse">
<stop stop-color="#FC4000"/>
<stop offset="1" stop-color="#780AFA"/>
</linearGradient>
<linearGradient id="paint1_linear_137_50" x1="-1.03223" y1="19.7563" x2="40.0789" y2="19.7563" gradientUnits="userSpaceOnUse">
<stop stop-color="#22FF00"/>
<stop offset="0.925" stop-color="#FADE08"/>
</linearGradient>
</defs>
</svg>
