<svg width="41" height="44" viewBox="0 0 41 44" fill="none" xmlns="http://www.w3.org/2000/svg">
<path d="M40.8104 18.0498C36.8104 18.0498 33.0604 16.7998 29.8104 14.7998V30.0498C29.8104 32.7998 28.8104 35.5498 27.3104 38.0498C25.5604 40.2998 23.3104 42.0498 20.5604 43.0498C17.8104 44.0498 14.8104 44.2998 11.8104 43.5498C9.06041 42.7998 6.31041 41.2998 4.31041 39.2998C2.31041 37.0498 1.06041 34.5498 0.810412 31.5498C0.560412 28.7998 1.06041 25.7998 2.56041 23.2998C4.06041 20.7998 6.06041 18.7998 8.81041 17.5498C11.5604 16.2998 14.3104 15.7998 17.3104 16.2998V24.0498C16.0604 23.5498 14.5604 23.5498 13.3104 24.0498C12.0604 24.5498 10.8104 25.2998 10.0604 26.2998C9.31041 27.2998 8.81041 28.7998 8.81041 30.0498C8.81041 31.2998 9.31041 32.7998 10.0604 33.7998C10.8104 34.7998 12.0604 35.7998 13.3104 36.0498C14.5604 36.5498 16.0604 36.5498 17.3104 36.0498C18.5604 35.5498 19.8104 34.7998 20.5604 33.7998C21.3104 32.7998 21.8104 31.2998 21.8104 30.0498V0.0498047H29.5604C29.5604 0.799805 29.5604 1.2998 29.8104 2.0498C30.0604 3.5498 30.5604 4.7998 31.5604 6.0498C32.3104 7.2998 33.5604 8.2998 34.8104 9.0498C36.5604 10.0498 38.5604 10.5498 40.8104 10.5498V18.0498Z" fill="url(#paint0_linear_137_197)"/>
<path d="M40.8104 18.0498C36.8104 18.0498 33.0604 16.7998 29.8104 14.7998V30.0498C29.8104 32.7998 28.8104 35.5498 27.3104 38.0498C25.5604 40.2998 23.3104 42.0498 20.5604 43.0498C17.8104 44.0498 14.8104 44.2998 11.8104 43.5498C9.06041 42.7998 6.31041 41.2998 4.31041 39.2998C2.31041 37.0498 1.06041 34.5498 0.810412 31.5498C0.560412 28.7998 1.06041 25.7998 2.56041 23.2998C4.06041 20.7998 6.06041 18.7998 8.81041 17.5498C11.5604 16.2998 14.3104 15.7998 17.3104 16.2998V24.0498C16.0604 23.5498 14.5604 23.5498 13.3104 24.0498C12.0604 24.5498 10.8104 25.2998 10.0604 26.2998C9.31041 27.2998 8.81041 28.7998 8.81041 30.0498C8.81041 31.2998 9.31041 32.7998 10.0604 33.7998C10.8104 34.7998 12.0604 35.7998 13.3104 36.0498C14.5604 36.5498 16.0604 36.5498 17.3104 36.0498C18.5604 35.5498 19.8104 34.7998 20.5604 33.7998C21.3104 32.7998 21.8104 31.2998 21.8104 30.0498V0.0498047H29.5604C29.5604 0.799805 29.5604 1.2998 29.8104 2.0498C30.0604 3.5498 30.5604 4.7998 31.5604 6.0498C32.3104 7.2998 33.5604 8.2998 34.8104 9.0498C36.5604 10.0498 38.5604 10.5498 40.8104 10.5498V18.0498Z" fill="url(#paint1_linear_137_197)"/>
<defs>
<linearGradient id="paint0_linear_137_197" x1="0.822008" y1="22.0443" x2="40.8104" y2="22.0443" gradientUnits="userSpaceOnUse">
<stop stop-color="#FC4000"/>
<stop offset="1" stop-color="#780AFA"/>
</linearGradient>
<linearGradient id="paint1_linear_137_197" x1="-0.284787" y1="21.6871" x2="40.8894" y2="21.6871" gradientUnits="userSpaceOnUse">
<stop stop-color="#22FF00"/>
<stop offset="0.925" stop-color="#FADE08"/>
</linearGradient>
</defs>
</svg>
