<svg width="41" height="40" viewBox="0 0 41 40" fill="none" xmlns="http://www.w3.org/2000/svg">
<path d="M3.16016 3.5498C0.410156 6.2998 0.410156 10.7998 0.410156 19.5498V21.0498C0.410156 29.7998 0.410156 34.2998 3.16016 37.0498C5.91016 39.7998 10.4102 39.7998 19.6602 39.7998H21.1602C30.1602 39.7998 34.6602 39.7998 37.6602 37.0498C40.4102 34.2998 40.4102 29.7998 40.4102 21.0498V19.5498C40.4102 10.7998 40.4102 6.2998 37.6602 3.5498C34.9102 0.799805 30.4102 0.799805 21.1602 0.799805H19.6602C10.6602 0.799805 5.91016 0.799805 3.16016 3.5498ZM7.16016 12.5498H11.6602C11.9102 20.0498 15.1602 23.0498 17.9102 23.7998V12.5498H22.1602V19.0498C24.9102 18.7998 27.6602 15.7998 28.4102 12.5498H32.9102C32.6602 14.2998 31.9102 15.7998 30.9102 17.2998C29.9102 18.7998 28.6602 19.7998 27.1602 20.7998C28.9102 21.5498 30.4102 22.7998 31.4102 24.0498C32.6602 25.5498 33.4102 27.0498 33.9102 28.7998H29.1602C28.6602 27.2998 27.9102 25.7998 26.6602 24.7998C25.4102 23.7998 23.9102 23.2998 22.1602 23.0498V28.7998H21.6602C12.6602 28.7998 7.41016 22.7998 7.16016 12.5498Z" fill="url(#paint0_linear_137_41)"/>
<path d="M3.16016 3.5498C0.410156 6.2998 0.410156 10.7998 0.410156 19.5498V21.0498C0.410156 29.7998 0.410156 34.2998 3.16016 37.0498C5.91016 39.7998 10.4102 39.7998 19.6602 39.7998H21.1602C30.1602 39.7998 34.6602 39.7998 37.6602 37.0498C40.4102 34.2998 40.4102 29.7998 40.4102 21.0498V19.5498C40.4102 10.7998 40.4102 6.2998 37.6602 3.5498C34.9102 0.799805 30.4102 0.799805 21.1602 0.799805H19.6602C10.6602 0.799805 5.91016 0.799805 3.16016 3.5498ZM7.16016 12.5498H11.6602C11.9102 20.0498 15.1602 23.0498 17.9102 23.7998V12.5498H22.1602V19.0498C24.9102 18.7998 27.6602 15.7998 28.4102 12.5498H32.9102C32.6602 14.2998 31.9102 15.7998 30.9102 17.2998C29.9102 18.7998 28.6602 19.7998 27.1602 20.7998C28.9102 21.5498 30.4102 22.7998 31.4102 24.0498C32.6602 25.5498 33.4102 27.0498 33.9102 28.7998H29.1602C28.6602 27.2998 27.9102 25.7998 26.6602 24.7998C25.4102 23.7998 23.9102 23.2998 22.1602 23.0498V28.7998H21.6602C12.6602 28.7998 7.41016 22.7998 7.16016 12.5498Z" fill="url(#paint1_linear_137_41)"/>
<defs>
<linearGradient id="paint0_linear_137_41" x1="0.410156" y1="20.2721" x2="40.4102" y2="20.2721" gradientUnits="userSpaceOnUse">
<stop stop-color="#FC4000"/>
<stop offset="1" stop-color="#780AFA"/>
</linearGradient>
<linearGradient id="paint1_linear_137_41" x1="-0.62207" y1="20.0063" x2="40.489" y2="20.0063" gradientUnits="userSpaceOnUse">
<stop stop-color="#22FF00"/>
<stop offset="0.925" stop-color="#FADE08"/>
</linearGradient>
</defs>
</svg>
