<svg width="19" height="19" viewBox="0 0 19 19" fill="none" xmlns="http://www.w3.org/2000/svg">
<path d="M9.02539 18.6641C13.996 18.6641 18.0254 14.6347 18.0254 9.66406C18.0254 4.6935 13.996 0.664062 9.02539 0.664062C4.05483 0.664062 0.0253906 4.6935 0.0253906 9.66406C0.0253906 14.6347 4.05483 18.6641 9.02539 18.6641Z" fill="url(#paint0_linear_32_1318)"/>
<path d="M9.02539 18.6641C13.996 18.6641 18.0254 14.6347 18.0254 9.66406C18.0254 4.6935 13.996 0.664062 9.02539 0.664062C4.05483 0.664062 0.0253906 4.6935 0.0253906 9.66406C0.0253906 14.6347 4.05483 18.6641 9.02539 18.6641Z" fill="url(#paint1_linear_32_1318)"/>
<path d="M9.02539 13.6641V13.6741" stroke="white" stroke-width="2" stroke-linecap="round" stroke-linejoin="round"/>
<path d="M9.02539 10.6638C9.47369 10.6624 9.90854 10.5106 10.2604 10.2328C10.6122 9.95494 10.8606 9.56711 10.966 9.13136C11.0713 8.69561 11.0273 8.23712 10.8412 7.82928C10.6551 7.42144 10.3376 7.08783 9.93939 6.88183C9.54157 6.67804 9.08649 6.61485 8.6482 6.70255C8.2099 6.79024 7.81418 7.02366 7.52539 7.36483" stroke="white" stroke-width="2" stroke-linecap="round" stroke-linejoin="round"/>
<defs>
<linearGradient id="paint0_linear_32_1318" x1="9.02539" y1="0.664062" x2="9.02539" y2="18.6641" gradientUnits="userSpaceOnUse">
<stop stop-color="#7827F6"/>
<stop offset="1" stop-color="#E23834"/>
</linearGradient>
<linearGradient id="paint1_linear_32_1318" x1="-0.439111" y1="9.52858" x2="18.0609" y2="9.52858" gradientUnits="userSpaceOnUse">
<stop stop-color="#22FF00"/>
<stop offset="0.925" stop-color="#FADE08"/>
</linearGradient>
</defs>
</svg>
